<?xml version="1.0" encoding="UTF-8"?>
<svg width="22px" height="22px" viewBox="0 0 22 22" version="1.1" xmlns="http://www.w3.org/2000/svg" xmlns:xlink="http://www.w3.org/1999/xlink">
    <!-- Generator: Sketch 64 (93537) - https://sketch.com -->
    <title>linkedin</title>
    <desc>Created with Sketch.</desc>
    <g id="Symbols" stroke="none" stroke-width="1" fill="none" fill-rule="evenodd">
        <g id="Contact-Icons" transform="translate(-177.000000, 0.000000)" fill="#FFFFFF" fill-rule="nonzero">
            <g id="linkedin" transform="translate(177.000000, 0.000000)">
                <path d="M11.0000602,21.9929131 C7.88434493,21.9929131 4.76880127,21.9822737 1.65308604,21.9999745 C0.827318561,22.0044104 0.129714039,21.4290276 0.0168208335,20.6496096 C0.0051540584,20.5687849 0.000521662409,20.4862442 0.000521662409,20.4042182 C0,14.137471 0,7.8707238 0,1.60380497 C0,0.700318454 0.673763213,0.0145953538 1.58171283,0.0075596563 C2.56292293,4.5647283e-06 3.54430459,0.00550042777 4.52568626,0.00550042777 C9.80318629,0.00550042777 15.0806863,0.0109917039 20.3578432,4.5647283e-06 C21.2098609,-0.00187847446 21.787881,0.579167176 21.928397,1.11954306 C21.9676866,1.27020995 21.9970251,1.42859894 21.9970251,1.58355589 C22.0004565,7.85716721 21.9999771,14.1309501 21.9999771,20.4045615 C21.9999771,21.2943198 21.3234404,21.9845045 20.4292164,21.990339 C19.2489849,21.9982327 18.0685817,21.9925699 16.8881786,21.9927415 C14.9254153,21.9929131 12.9628235,21.9929131 11.0000602,21.9929131 Z M11.7319787,9.66345384 C11.7319787,9.2207197 11.7237434,8.84353768 11.7355817,8.46669886 C11.7414151,8.27999547 11.6842822,8.21873342 11.491952,8.22062105 C10.5930956,8.23005918 9.69406763,8.2319468 8.7953828,8.21976303 C8.5781749,8.21684579 8.53459457,8.29183603 8.53493921,8.4914096 C8.54025788,11.8338807 8.54060102,15.1761802 8.53459457,18.5186513 C8.53425293,18.725947 8.59292994,18.7918423 8.80138776,18.7896115 C9.7345582,18.7803449 10.6679002,18.7798301 11.6010706,18.7900062 C11.8127883,18.7921855 11.8644309,18.7223433 11.8635731,18.5176217 C11.8556809,16.8362616 11.8544799,15.1545583 11.8628868,13.4731982 C11.8646025,13.1255318 11.8870782,12.7730605 11.9481572,12.4314002 C12.0751192,11.7202799 12.4011026,11.1457552 13.1616734,10.9547617 C13.3840284,10.898991 13.6223394,10.8857776 13.8527582,10.8880084 C14.663256,10.8960737 15.1525742,11.2581547 15.3244876,12.0459812 C15.4241699,12.5026152 15.4550525,12.9812142 15.4593418,13.4507183 C15.4746115,15.1389425 15.4680919,16.8273383 15.4617438,18.5157341 C15.4608859,18.7192545 15.5185335,18.7918423 15.7295649,18.7897831 C16.6627353,18.7803449 17.5960773,18.7806882 18.5292478,18.7896115 C18.7311859,18.7916707 18.7816276,18.7221717 18.7809482,18.5282611 C18.7749363,16.6684345 18.7751079,14.8084363 18.7799119,12.9484381 C18.7819707,12.1858372 18.7418233,11.4276979 18.5668216,10.6834584 C18.3648835,9.82630449 17.9951497,9.0691948 17.2345789,8.56005055 C16.7329075,8.22405309 16.1692994,8.0658357 15.5784115,7.99908238 C14.9008807,7.92271932 14.2254088,7.91310959 13.5705252,8.15129369 C12.8025769,8.43049075 12.2000223,8.91612548 11.7319787,9.66345384 Z M6.54369521,13.5119804 C6.54369521,11.8311351 6.5414648,10.1501182 6.54695505,8.46927289 C6.54746976,8.28720277 6.50268993,8.21873342 6.30607046,8.22074769 C5.35951754,8.23057398 4.41296463,8.22920117 3.46641171,8.22165066 C3.28437571,8.22010624 3.21883588,8.26300683 3.21934759,8.45966316 C3.22518398,11.8213537 3.22518398,15.1832159 3.21934759,18.5450781 C3.21900745,18.7413912 3.28574827,18.7899547 3.46726956,18.7887535 C4.40695967,18.7825758 5.34682135,18.7800017 6.28651145,18.7903511 C6.50234679,18.7927003 6.54867075,18.7139348 6.54782451,18.5136749 C6.54077852,16.8462146 6.54369521,15.1790975 6.54369521,13.5119804 Z M4.87603266,6.81451159 C5.93908175,6.81519757 6.79230046,5.97383112 6.79401876,4.92345297 C6.79573187,3.85471336 5.94714555,2.99515705 4.88975827,2.99447022 C3.82001794,2.99378423 2.97451989,3.83926914 2.97469143,4.90955317 C2.9750346,5.97005587 3.81727282,6.81399636 4.87603266,6.81451159 Z" id="Shape"></path>
            </g>
        </g>
    </g>
</svg>