<?xml version="1.0" standalone="no"?>
<!DOCTYPE svg PUBLIC "-//W3C//DTD SVG 20010904//EN"
 "http://www.w3.org/TR/2001/REC-SVG-20010904/DTD/svg10.dtd">
<svg version="1.0" xmlns="http://www.w3.org/2000/svg"
 width="260.000000pt" height="260.000000pt" viewBox="0 0 260.000000 260.000000"
 preserveAspectRatio="xMidYMid meet">
<metadata>
Created by potrace 1.11, written by Peter Selinger 2001-2013
</metadata>
<g transform="translate(0.000000,260.000000) scale(0.100000,-0.100000)"
fill="#000000" stroke="none">
<path d="M346 2112 c-6 -21 -54 -241 -61 -285 -3 -18 -14 -68 -24 -112 -11
-44 -23 -98 -27 -120 -4 -22 -8 -42 -9 -45 -1 -3 -5 -25 -10 -50 -5 -25 -9
-47 -10 -50 -1 -3 -5 -23 -9 -45 -5 -22 -14 -65 -22 -95 -7 -30 -16 -71 -19
-90 -3 -19 -12 -63 -20 -98 -8 -34 -17 -74 -20 -90 -3 -15 -14 -67 -24 -117
-11 -49 -18 -92 -16 -93 3 -4 188 -6 240 -3 15 1 25 14 39 52 l18 51 41 -40
c55 -53 98 -73 167 -79 110 -10 223 46 300 150 18 23 30 33 26 22 -6 -23 -14
-59 -20 -95 -3 -14 -7 -36 -10 -50 -14 -64 -17 -77 -22 -100 -2 -14 -9 -43
-13 -65 -5 -22 -18 -84 -30 -138 -11 -54 -23 -103 -27 -108 -3 -5 1 -10 8 -10
42 -4 311 -3 317 1 4 3 17 52 29 110 30 141 31 145 43 225 6 39 13 77 14 85 2
8 4 32 4 53 l1 38 49 -50 c56 -58 107 -76 188 -67 97 10 187 67 255 160 l28
39 0 -75 c0 -73 1 -76 28 -87 63 -26 160 -39 277 -36 139 3 159 7 238 42 115
52 180 161 178 299 -2 125 -63 209 -203 280 -90 45 -117 84 -82 118 29 30 141
12 219 -36 17 -10 35 -18 41 -18 15 0 107 197 98 211 -9 15 -105 57 -162 70
-73 18 -211 19 -284 4 -117 -24 -197 -81 -235 -166 l-17 -39 -12 36 c-47 138
-188 211 -327 170 -44 -13 -70 -29 -104 -62 l-45 -46 5 51 5 51 -44 1 c-24 0
-73 1 -109 1 -125 0 -110 14 -136 -124 -21 -109 -24 -118 -32 -87 -37 148
-133 231 -261 225 -74 -3 -127 -27 -166 -74 l-29 -35 26 79 c25 77 82 322 83
355 0 14 -20 17 -159 18 -143 1 -160 -1 -165 -17z m330 -625 c25 -47 21 -145
-10 -251 -44 -148 -160 -225 -194 -127 -15 43 -6 177 18 253 45 144 143 210
186 125z m801 6 c17 -26 23 -131 11 -188 -4 -16 -10 -43 -13 -59 -30 -146
-144 -234 -190 -147 -52 102 14 368 103 415 33 17 70 9 89 -21z m426 -220 c20
-17 68 -50 107 -73 38 -22 77 -52 86 -65 24 -37 11 -71 -32 -85 -61 -20 -217
0 -278 36 -18 11 -18 13 2 75 12 35 24 82 27 104 4 22 8 49 10 60 2 11 4 25 4
30 1 6 9 -4 19 -20 10 -17 35 -44 55 -62z"/>
</g>
</svg>
